<svg width="32" height="32" viewBox="0 0 32 32" fill="none" xmlns="http://www.w3.org/2000/svg">
<g filter="url(#filter0_d_1_65)">
<circle cx="16" cy="12" r="12" fill="#F8593B"/>
<g clip-path="url(#clip0_1_65)">
<path d="M21.2201 13.1968C21.0597 11.1089 20.0876 9.80044 19.23 8.64583C18.4359 7.5769 17.75 6.65383 17.75 5.29217C17.75 5.1828 17.6888 5.08283 17.5916 5.03271C17.4942 4.98228 17.3771 4.99054 17.2886 5.05491C16.0006 5.97656 14.9259 7.52993 14.5505 9.01207C14.2899 10.0439 14.2554 11.204 14.2506 11.9701C13.0611 11.7161 12.7917 9.93686 12.7888 9.91747C12.7754 9.82519 12.7191 9.74488 12.637 9.70102C12.5541 9.65774 12.4567 9.65459 12.3727 9.69618C12.3103 9.72637 10.8417 10.4726 10.7563 13.452C10.7503 13.5511 10.75 13.6505 10.75 13.7499C10.75 16.6444 13.1053 18.9996 16 18.9996C16.004 18.9998 16.0083 19.0004 16.0117 18.9996C16.0128 18.9996 16.0139 18.9996 16.0154 18.9996C18.903 18.9913 21.25 16.6393 21.25 13.7499C21.25 13.6044 21.2201 13.1968 21.2201 13.1968ZM16 18.4163C15.035 18.4163 14.25 17.5801 14.25 16.5522C14.25 16.5172 14.2497 16.4818 14.2523 16.4385C14.2639 16.0051 14.3463 15.7092 14.4366 15.5123C14.6058 15.8758 14.9082 16.2098 15.3996 16.2098C15.5608 16.2098 15.6913 16.0794 15.6913 15.9182C15.6913 15.503 15.6998 15.0239 15.8032 14.5915C15.8952 14.2082 16.1151 13.8003 16.3937 13.4734C16.5176 13.8977 16.7591 14.2412 16.995 14.5764C17.3325 15.056 17.6814 15.5519 17.7426 16.3975C17.7463 16.4477 17.7501 16.4981 17.7501 16.5522C17.75 17.58 16.965 18.4163 16 18.4163Z" fill="white"/>
</g>
</g>
<defs>
<filter id="filter0_d_1_65" x="0" y="0" width="32" height="32" filterUnits="userSpaceOnUse" color-interpolation-filters="sRGB">
<feFlood flood-opacity="0" result="BackgroundImageFix"/>
<feColorMatrix in="SourceAlpha" type="matrix" values="0 0 0 0 0 0 0 0 0 0 0 0 0 0 0 0 0 0 127 0" result="hardAlpha"/>
<feOffset dy="4"/>
<feGaussianBlur stdDeviation="2"/>
<feComposite in2="hardAlpha" operator="out"/>
<feColorMatrix type="matrix" values="0 0 0 0 0 0 0 0 0 0 0 0 0 0 0 0 0 0 0.25 0"/>
<feBlend mode="normal" in2="BackgroundImageFix" result="effect1_dropShadow_1_65"/>
<feBlend mode="normal" in="SourceGraphic" in2="effect1_dropShadow_1_65" result="shape"/>
</filter>
<clipPath id="clip0_1_65">
<rect width="14" height="14" fill="white" transform="translate(9 5)"/>
</clipPath>
</defs>
</svg>
